REM MD5 de3a62991b0bdafb4e1c9ae248aa4d6b
FILE "Play-Pre Vol. 12 (Japan).bin" BINARY
  TRACK 01 MODE2/2352
    INDEX 01 00:00:00
  TRACK 02 AUDIO
    INDEX 00 51:22:57
    INDEX 01 51:24:57
  TRACK 03 AUDIO
    INDEX 00 53:29:65
    INDEX 01 53:31:65
  TRACK 04 AUDIO
    INDEX 00 55:35:43
    INDEX 01 55:37:43
REM LEADOUT 59:38:11
